<mxfile host="app.diagrams.net" agent="Mozilla/5.0 (Windows NT 10.0; Win64; x64) AppleWebKit/537.36 (KHTML, like Gecko) Chrome/131.0.0.0 Safari/537.36" version="25.0.3">
  <diagram name="Page-1" id="WrnaUCPhpHkqsOkq2y83">
    <mxGraphModel dx="1434" dy="790" grid="1" gridSize="10" guides="1" tooltips="1" connect="1" arrows="1" fold="1" page="1" pageScale="1" pageWidth="850" pageHeight="1100" math="0" shadow="0">
      <root>
        <mxCell id="0" />
        <mxCell id="1" parent="0" />
        <mxCell id="VL3Y_4hVypge6TzzfqYj-60" value="" style="group" parent="1" vertex="1" connectable="0">
          <mxGeometry width="320" height="860" as="geometry" />
        </mxCell>
        <mxCell id="VL3Y_4hVypge6TzzfqYj-38" style="edgeStyle=orthogonalEdgeStyle;rounded=0;orthogonalLoop=1;jettySize=auto;html=1;entryX=0.5;entryY=0;entryDx=0;entryDy=0;" parent="VL3Y_4hVypge6TzzfqYj-60" target="VL3Y_4hVypge6TzzfqYj-37" edge="1">
          <mxGeometry relative="1" as="geometry">
            <mxPoint x="160" y="240" as="sourcePoint" />
          </mxGeometry>
        </mxCell>
        <mxCell id="VL3Y_4hVypge6TzzfqYj-29" style="edgeStyle=orthogonalEdgeStyle;rounded=0;orthogonalLoop=1;jettySize=auto;html=1;entryX=0.5;entryY=0;entryDx=0;entryDy=0;" parent="VL3Y_4hVypge6TzzfqYj-60" source="VL3Y_4hVypge6TzzfqYj-28" target="VL3Y_4hVypge6TzzfqYj-1" edge="1">
          <mxGeometry relative="1" as="geometry" />
        </mxCell>
        <mxCell id="VL3Y_4hVypge6TzzfqYj-30" style="edgeStyle=orthogonalEdgeStyle;rounded=0;orthogonalLoop=1;jettySize=auto;html=1;" parent="VL3Y_4hVypge6TzzfqYj-60" source="VL3Y_4hVypge6TzzfqYj-28" target="VL3Y_4hVypge6TzzfqYj-2" edge="1">
          <mxGeometry relative="1" as="geometry" />
        </mxCell>
        <mxCell id="VL3Y_4hVypge6TzzfqYj-28" value="Start" style="ellipse;whiteSpace=wrap;html=1;" parent="VL3Y_4hVypge6TzzfqYj-60" vertex="1">
          <mxGeometry x="140" width="40" height="20" as="geometry" />
        </mxCell>
        <mxCell id="VL3Y_4hVypge6TzzfqYj-34" value="" style="group" parent="VL3Y_4hVypge6TzzfqYj-60" vertex="1" connectable="0">
          <mxGeometry y="55" width="320" height="60" as="geometry" />
        </mxCell>
        <mxCell id="VL3Y_4hVypge6TzzfqYj-6" style="edgeStyle=orthogonalEdgeStyle;rounded=0;orthogonalLoop=1;jettySize=auto;html=1;entryX=1;entryY=0.25;entryDx=0;entryDy=0;exitX=0;exitY=0.25;exitDx=0;exitDy=0;" parent="VL3Y_4hVypge6TzzfqYj-34" source="VL3Y_4hVypge6TzzfqYj-1" target="VL3Y_4hVypge6TzzfqYj-2" edge="1">
          <mxGeometry relative="1" as="geometry">
            <mxPoint x="180" y="-5" as="sourcePoint" />
            <Array as="points">
              <mxPoint x="180" y="15" />
              <mxPoint x="180" y="15" />
            </Array>
          </mxGeometry>
        </mxCell>
        <mxCell id="VL3Y_4hVypge6TzzfqYj-1" value="Chat GPT" style="whiteSpace=wrap;html=1;" parent="VL3Y_4hVypge6TzzfqYj-34" vertex="1">
          <mxGeometry x="200" width="120" height="60" as="geometry" />
        </mxCell>
        <mxCell id="VL3Y_4hVypge6TzzfqYj-7" style="edgeStyle=orthogonalEdgeStyle;rounded=0;orthogonalLoop=1;jettySize=auto;html=1;exitX=1;exitY=0.75;exitDx=0;exitDy=0;entryX=0;entryY=0.75;entryDx=0;entryDy=0;" parent="VL3Y_4hVypge6TzzfqYj-34" source="VL3Y_4hVypge6TzzfqYj-2" target="VL3Y_4hVypge6TzzfqYj-1" edge="1">
          <mxGeometry relative="1" as="geometry">
            <mxPoint x="190" y="75" as="targetPoint" />
            <Array as="points">
              <mxPoint x="130" y="45" />
              <mxPoint x="130" y="45" />
            </Array>
          </mxGeometry>
        </mxCell>
        <mxCell id="VL3Y_4hVypge6TzzfqYj-2" value="Perplexity" style="whiteSpace=wrap;html=1;" parent="VL3Y_4hVypge6TzzfqYj-34" vertex="1">
          <mxGeometry width="120" height="60" as="geometry" />
        </mxCell>
        <mxCell id="VL3Y_4hVypge6TzzfqYj-12" value="&lt;font style=&quot;font-size: 9px;&quot;&gt;Response&amp;nbsp;&lt;/font&gt;&lt;div&gt;&lt;font style=&quot;font-size: 9px;&quot;&gt;Refinement&lt;/font&gt;&lt;/div&gt;" style="text;html=1;align=center;verticalAlign=middle;resizable=0;points=[];autosize=1;strokeColor=none;fillColor=none;rotation=0;" parent="VL3Y_4hVypge6TzzfqYj-34" vertex="1">
          <mxGeometry x="125" y="10" width="70" height="40" as="geometry" />
        </mxCell>
        <mxCell id="VL3Y_4hVypge6TzzfqYj-50" style="edgeStyle=orthogonalEdgeStyle;rounded=0;orthogonalLoop=1;jettySize=auto;html=1;entryX=0.5;entryY=0;entryDx=0;entryDy=0;" parent="VL3Y_4hVypge6TzzfqYj-60" source="VL3Y_4hVypge6TzzfqYj-35" target="VL3Y_4hVypge6TzzfqYj-49" edge="1">
          <mxGeometry relative="1" as="geometry" />
        </mxCell>
        <mxCell id="VL3Y_4hVypge6TzzfqYj-51" value="Yes" style="edgeLabel;html=1;align=center;verticalAlign=middle;resizable=0;points=[];" parent="VL3Y_4hVypge6TzzfqYj-50" vertex="1" connectable="0">
          <mxGeometry x="-0.22" y="1" relative="1" as="geometry">
            <mxPoint as="offset" />
          </mxGeometry>
        </mxCell>
        <mxCell id="VL3Y_4hVypge6TzzfqYj-57" style="edgeStyle=orthogonalEdgeStyle;rounded=0;orthogonalLoop=1;jettySize=auto;html=1;entryX=0.5;entryY=0;entryDx=0;entryDy=0;exitX=1;exitY=0.5;exitDx=0;exitDy=0;" parent="VL3Y_4hVypge6TzzfqYj-60" source="VL3Y_4hVypge6TzzfqYj-35" target="VL3Y_4hVypge6TzzfqYj-54" edge="1">
          <mxGeometry relative="1" as="geometry">
            <mxPoint x="360" y="750" as="targetPoint" />
            <Array as="points">
              <mxPoint x="300" y="570" />
              <mxPoint x="300" y="740" />
              <mxPoint x="160" y="740" />
            </Array>
          </mxGeometry>
        </mxCell>
        <mxCell id="VL3Y_4hVypge6TzzfqYj-59" value="No" style="edgeLabel;html=1;align=center;verticalAlign=middle;resizable=0;points=[];" parent="VL3Y_4hVypge6TzzfqYj-57" vertex="1" connectable="0">
          <mxGeometry x="-0.8943" y="-2" relative="1" as="geometry">
            <mxPoint x="12" y="-2" as="offset" />
          </mxGeometry>
        </mxCell>
        <mxCell id="VL3Y_4hVypge6TzzfqYj-35" value="&lt;span style=&quot;font-size: 10px;&quot;&gt;need to&lt;/span&gt;&lt;div&gt;&lt;span style=&quot;font-size: 10px;&quot;&gt;validate content&lt;/span&gt;&lt;/div&gt;&lt;div&gt;&lt;span style=&quot;font-size: 10px;&quot;&gt;of academic&lt;/span&gt;&lt;/div&gt;&lt;div&gt;&lt;span style=&quot;font-size: 10px;&quot;&gt;papers&lt;/span&gt;&lt;/div&gt;" style="rhombus;whiteSpace=wrap;html=1;" parent="VL3Y_4hVypge6TzzfqYj-60" vertex="1">
          <mxGeometry x="110" y="520" width="100" height="100" as="geometry" />
        </mxCell>
        <mxCell id="VL3Y_4hVypge6TzzfqYj-40" style="edgeStyle=orthogonalEdgeStyle;rounded=0;orthogonalLoop=1;jettySize=auto;html=1;entryX=0.5;entryY=0;entryDx=0;entryDy=0;" parent="VL3Y_4hVypge6TzzfqYj-60" source="VL3Y_4hVypge6TzzfqYj-37" target="VL3Y_4hVypge6TzzfqYj-39" edge="1">
          <mxGeometry relative="1" as="geometry" />
        </mxCell>
        <mxCell id="VL3Y_4hVypge6TzzfqYj-47" value="Yes" style="edgeLabel;html=1;align=center;verticalAlign=middle;resizable=0;points=[];" parent="VL3Y_4hVypge6TzzfqYj-40" vertex="1" connectable="0">
          <mxGeometry x="-0.2" relative="1" as="geometry">
            <mxPoint as="offset" />
          </mxGeometry>
        </mxCell>
        <mxCell id="VL3Y_4hVypge6TzzfqYj-56" style="edgeStyle=orthogonalEdgeStyle;rounded=0;orthogonalLoop=1;jettySize=auto;html=1;entryX=0.5;entryY=0;entryDx=0;entryDy=0;exitX=1;exitY=0.5;exitDx=0;exitDy=0;" parent="VL3Y_4hVypge6TzzfqYj-60" source="VL3Y_4hVypge6TzzfqYj-37" target="VL3Y_4hVypge6TzzfqYj-35" edge="1">
          <mxGeometry relative="1" as="geometry">
            <mxPoint x="360" y="750" as="targetPoint" />
            <Array as="points">
              <mxPoint x="300" y="330" />
              <mxPoint x="300" y="500" />
              <mxPoint x="160" y="500" />
            </Array>
          </mxGeometry>
        </mxCell>
        <mxCell id="VL3Y_4hVypge6TzzfqYj-58" value="No" style="edgeLabel;html=1;align=center;verticalAlign=middle;resizable=0;points=[];" parent="VL3Y_4hVypge6TzzfqYj-56" vertex="1" connectable="0">
          <mxGeometry x="-0.917" relative="1" as="geometry">
            <mxPoint x="6" as="offset" />
          </mxGeometry>
        </mxCell>
        <mxCell id="VL3Y_4hVypge6TzzfqYj-37" value="&lt;font style=&quot;font-size: 9px;&quot;&gt;need additional&lt;/font&gt;&lt;div&gt;&lt;font style=&quot;font-size: 9px;&quot;&gt;links to academic papers&lt;/font&gt;&lt;/div&gt;" style="rhombus;whiteSpace=wrap;html=1;" parent="VL3Y_4hVypge6TzzfqYj-60" vertex="1">
          <mxGeometry x="110" y="280" width="100" height="100" as="geometry" />
        </mxCell>
        <mxCell id="VL3Y_4hVypge6TzzfqYj-48" style="edgeStyle=orthogonalEdgeStyle;rounded=0;orthogonalLoop=1;jettySize=auto;html=1;entryX=0.5;entryY=0;entryDx=0;entryDy=0;" parent="VL3Y_4hVypge6TzzfqYj-60" source="VL3Y_4hVypge6TzzfqYj-39" target="VL3Y_4hVypge6TzzfqYj-35" edge="1">
          <mxGeometry relative="1" as="geometry" />
        </mxCell>
        <mxCell id="VL3Y_4hVypge6TzzfqYj-39" value="Jenni.AI" style="whiteSpace=wrap;html=1;" parent="VL3Y_4hVypge6TzzfqYj-60" vertex="1">
          <mxGeometry x="100" y="420" width="120" height="60" as="geometry" />
        </mxCell>
        <mxCell id="VL3Y_4hVypge6TzzfqYj-41" value="Satisfactory Output" style="shape=parallelogram;perimeter=parallelogramPerimeter;whiteSpace=wrap;html=1;fixedSize=1;size=10;" parent="VL3Y_4hVypge6TzzfqYj-60" vertex="1">
          <mxGeometry x="100" y="180" width="120" height="60" as="geometry" />
        </mxCell>
        <mxCell id="VL3Y_4hVypge6TzzfqYj-43" style="edgeStyle=orthogonalEdgeStyle;rounded=0;orthogonalLoop=1;jettySize=auto;html=1;entryX=0.5;entryY=0;entryDx=0;entryDy=0;" parent="VL3Y_4hVypge6TzzfqYj-60" source="VL3Y_4hVypge6TzzfqYj-1" target="VL3Y_4hVypge6TzzfqYj-41" edge="1">
          <mxGeometry relative="1" as="geometry">
            <Array as="points">
              <mxPoint x="260" y="150" />
              <mxPoint x="160" y="150" />
            </Array>
          </mxGeometry>
        </mxCell>
        <mxCell id="VL3Y_4hVypge6TzzfqYj-44" style="edgeStyle=orthogonalEdgeStyle;rounded=0;orthogonalLoop=1;jettySize=auto;html=1;entryX=0.5;entryY=0;entryDx=0;entryDy=0;" parent="VL3Y_4hVypge6TzzfqYj-60" source="VL3Y_4hVypge6TzzfqYj-2" target="VL3Y_4hVypge6TzzfqYj-41" edge="1">
          <mxGeometry relative="1" as="geometry">
            <Array as="points">
              <mxPoint x="60" y="150" />
              <mxPoint x="160" y="150" />
            </Array>
          </mxGeometry>
        </mxCell>
        <mxCell id="VL3Y_4hVypge6TzzfqYj-53" style="edgeStyle=orthogonalEdgeStyle;rounded=0;orthogonalLoop=1;jettySize=auto;html=1;entryX=0.5;entryY=0;entryDx=0;entryDy=0;" parent="VL3Y_4hVypge6TzzfqYj-60" source="VL3Y_4hVypge6TzzfqYj-49" target="VL3Y_4hVypge6TzzfqYj-54" edge="1">
          <mxGeometry relative="1" as="geometry">
            <mxPoint x="160" y="740" as="targetPoint" />
          </mxGeometry>
        </mxCell>
        <mxCell id="VL3Y_4hVypge6TzzfqYj-49" value="ChatPDF" style="whiteSpace=wrap;html=1;" parent="VL3Y_4hVypge6TzzfqYj-60" vertex="1">
          <mxGeometry x="100" y="660" width="120" height="60" as="geometry" />
        </mxCell>
        <mxCell id="VL3Y_4hVypge6TzzfqYj-54" value="Validate AI&lt;div&gt;Generated Response&lt;/div&gt;" style="whiteSpace=wrap;html=1;" parent="VL3Y_4hVypge6TzzfqYj-60" vertex="1">
          <mxGeometry x="100" y="760" width="120" height="60" as="geometry" />
        </mxCell>
        <mxCell id="VL3Y_4hVypge6TzzfqYj-63" style="edgeStyle=orthogonalEdgeStyle;rounded=0;orthogonalLoop=1;jettySize=auto;html=1;entryX=0.5;entryY=0;entryDx=0;entryDy=0;exitX=0.5;exitY=1;exitDx=0;exitDy=0;" parent="1" source="VL3Y_4hVypge6TzzfqYj-61" target="VL3Y_4hVypge6TzzfqYj-52" edge="1">
          <mxGeometry relative="1" as="geometry">
            <Array as="points">
              <mxPoint x="160" y="920" />
              <mxPoint x="160" y="920" />
            </Array>
          </mxGeometry>
        </mxCell>
        <mxCell id="VL3Y_4hVypge6TzzfqYj-61" value="Usable Output" style="shape=parallelogram;perimeter=parallelogramPerimeter;whiteSpace=wrap;html=1;fixedSize=1;size=10;" parent="1" vertex="1">
          <mxGeometry x="100" y="860" width="120" height="60" as="geometry" />
        </mxCell>
        <mxCell id="VL3Y_4hVypge6TzzfqYj-52" value="End" style="ellipse;whiteSpace=wrap;html=1;" parent="1" vertex="1">
          <mxGeometry x="140" y="960" width="40" height="20" as="geometry" />
        </mxCell>
        <mxCell id="VL3Y_4hVypge6TzzfqYj-62" style="edgeStyle=orthogonalEdgeStyle;rounded=0;orthogonalLoop=1;jettySize=auto;html=1;entryX=0.5;entryY=0;entryDx=0;entryDy=0;" parent="1" source="VL3Y_4hVypge6TzzfqYj-54" target="VL3Y_4hVypge6TzzfqYj-61" edge="1">
          <mxGeometry relative="1" as="geometry" />
        </mxCell>
      </root>
    </mxGraphModel>
  </diagram>
</mxfile>
